<?xml version="1.0" encoding="utf-8"?>
<!-- Generator: Adobe Illustrator 23.0.4, SVG Export Plug-In . SVG Version: 6.00 Build 0)  -->
<svg version="1.1" id="Layer_1" xmlns="http://www.w3.org/2000/svg" xmlns:xlink="http://www.w3.org/1999/xlink" x="0px" y="0px"
	 viewBox="0 0 353.6 116.8" style="enable-background:new 0 0 353.6 116.8;" xml:space="preserve">
<style type="text/css">
	.st0{fill:#FFFFFF;}
</style>
<title>3d-Main_invert_logo</title>
<path class="st0" d="M53.9,113.1c-0.5,0.3-1.1,0.6-1.6,0.9l-0.6,0.3l-0.2,0.1l-0.4,0.2l-0.3,0.1l-0.4,0.2l-0.3,0.1l-0.4,0.1
	l-0.3,0.1l-0.4,0.1l-0.3,0.1l-0.4,0.1l-0.3,0.1l-0.4,0.1l-0.3,0.1l-0.4,0.1l-0.2,0.1l-0.6,0.1h-0.1l-0.7,0.1h-0.2l-0.5,0.1h-0.3
	l-0.4,0h-0.3h-0.4h-0.3h-0.4h-0.3H42h-1.9h-0.7h-0.2l-0.8-0.1h-0.1l-0.7-0.1h-0.2l-0.8-0.1l0,0l-0.8-0.2h-0.2l-0.7-0.2h-0.1
	l-0.8-0.2h-0.2l-0.7-0.2l-0.2-0.1c-0.3-0.1-0.5-0.2-0.8-0.3l-0.1,0l-0.7-0.2l-0.2-0.1l-0.8-0.3h-0.1l-0.7-0.3l-0.2-0.1
	c-0.5-0.2-1-0.5-1.5-0.8l-0.2-0.1l-0.6-0.4l-0.1,0l-0.7-0.5l-0.2-0.1l-0.6-0.4l-0.1-0.1l-0.7-0.5l-0.1-0.1l-0.6-0.5l-0.2-0.1
	l-0.6-0.5l-0.1-0.1l-0.6-0.5l-0.2-0.1c-0.4-0.4-0.8-0.8-1.2-1.2l-0.1-0.2l-0.5-0.6l-0.1-0.1c-0.2-0.2-0.4-0.4-0.6-0.7l-0.1-0.2
	l-0.4-0.6l-0.1-0.1c-0.2-0.2-0.3-0.5-0.5-0.7l-0.1-0.1c-0.1-0.2-0.3-0.4-0.4-0.6c0-0.1-0.1-0.1-0.1-0.2c-0.2-0.2-0.3-0.5-0.5-0.8
	l-0.1-0.1c-0.1-0.2-0.3-0.5-0.4-0.7c0-0.1-0.1-0.1-0.1-0.2c-0.1-0.3-0.3-0.5-0.4-0.8C15,97.4,14,93.1,14,88.9
	c0-4.7,1.3-9.4,3.6-13.5c0.3-0.5,0.7-1.1,1-1.6c0.2-0.4,0.5-0.7,0.8-1s0.5-0.7,0.8-1s0.6-0.6,0.9-1c2.1-2.2,4.6-4.1,7.3-5.4l0,0
	l0.8-0.4l0.2-0.1l0.5-0.2l0.3-0.1l0.5-0.2l0.3-0.1l0.5-0.2l0.2-0.1c0.5-0.2,1-0.3,1.6-0.4l0.2-0.1l0.6-0.1l0.3-0.1l0.5-0.1h0.3
	l0.6-0.1H36c0.5-0.1,1.1-0.1,1.6-0.2h0.2h0.6h2.5l1,0.1L28.4,35.2l-5.9-12.1L41.1,14L69.5,0.1l0,0l0.5,0.9c0.2,0.4,0.4,0.8,0.5,1.2
	c0.1,0.2,0.2,0.5,0.2,0.7c0.1,0.3,0.2,0.6,0.3,0.9c0,0.1,0,0.1,0,0.2c0.1,0.3,0.1,0.7,0.2,1s0.1,0.9,0.1,1.3c0,0.4,0,0.9,0,1.3
	c0,0.3-0.1,0.6-0.1,0.9c-0.1,0.3-0.1,0.7-0.2,1c-0.1,0.5-0.2,0.9-0.4,1.3c0,0.1-0.1,0.2-0.1,0.4s-0.2,0.5-0.4,0.8
	c-1.1,2.3-3,4.2-5.3,5.4L40.1,29.5l10.6,21.7l13.2,26.9c1,2,1.7,4.1,2.2,6.3l0.1,0.3c0.1,0.4,0.2,0.8,0.2,1.2
	C68.3,96.6,63.3,107.5,53.9,113.1z M4.3,32.1c-3.3,1.6-4.7,5.7-3.1,9c1.6,3.3,5.7,4.7,9,3.1c3.3-1.6,4.7-5.7,3.1-9
	C11.7,31.8,7.7,30.4,4.3,32.1C4.3,32.1,4.3,32.1,4.3,32.1L4.3,32.1z M72.8,35.3c-1.6-3.3-5.7-4.7-9-3.1c-3.3,1.6-4.7,5.7-3.1,9
	c1.6,3.3,5.7,4.7,9,3.1C73.1,42.7,74.5,38.7,72.8,35.3z M96.5,63.5c3.8,3.6,9.1,6,16.7,6c10.1,0,15.7-5,15.7-12.6
	c0-8.5-8.6-10.4-14.8-11.6c-4.2-0.8-6.5-1.5-6.5-3.4c0-1.6,1.2-2.9,4.5-2.9c3.9,0.1,7.6,1.5,10.6,3.9l5.3-7
	c-4.3-3.6-9.8-5.4-15.3-5.3c-9.7,0-15,5.5-15,11.8c0,8.9,8.7,10.5,14.9,11.8c4,0.8,6.4,1.7,6.4,3.8c0,1.8-2,3.2-5.4,3.2
	c-4.5,0-8.8-1.8-12-5L96.5,63.5z M131.5,68.9h9.7V31.1h-9.7V68.9z M171.5,68.9h9.4V31.1h-9.8v21.7l-15.3-21.7h-10v37.7h9.7V46
	L171.5,68.9z M183.5,50c0,12,9.2,19.5,20.4,19.5c6.4,0.1,12.5-2.6,16.7-7.4V47.4h-18.2v8.1h8.6v3.2c-2.1,1.5-4.6,2.3-7.1,2.3
	c-6.2,0-10.5-4.8-10.5-10.9s4.4-10.9,10.5-10.9c3.3,0,6.3,1.7,8,4.5l8.1-4.3c-2.8-4.7-7.9-8.8-16.1-8.8
	C192.7,30.5,183.5,38,183.5,50L183.5,50z M100.1,115.5h4.6V98.8h19.2v-4.1h-19.1V82.8h19.5v-4.1h-24.1L100.1,115.5z M124.7,97.2
	c0,10.9,7.3,19,18.2,19s18.2-8.2,18.2-19s-7.4-19-18.2-19S124.7,86.3,124.7,97.2L124.7,97.2z M156.4,97.2c0,8.5-5.3,14.9-13.5,14.9
	s-13.5-6.4-13.5-14.9s5.2-14.9,13.5-14.9S156.5,88.6,156.4,97.2L156.4,97.2z M185.4,115.5h5.4l-9.9-15c5-0.4,9.5-4.1,9.5-10.7
	c0-6.8-4.8-11.1-11.5-11.1h-14.8v36.8h4.6v-14.6h7.3L185.4,115.5z M185.7,89.9c0,4.1-3,7.1-7.3,7.1h-9.6V82.8h9.6
	C182.7,82.8,185.7,85.7,185.7,89.9L185.7,89.9z M231,115.5h4.4V78.7h-4.6v29l-21.2-29H205v36.8h4.6V85.9L231,115.5z M240.1,115.5
	h24.1v-4.1h-19.5V98.8h19.1v-4.1h-19.1V82.8h19.5v-4.1h-24.1L240.1,115.5z M267.1,115.5h24.1v-4.1h-19.4V98.8h19.1v-4.1h-19.1V82.8
	h19.5v-4.1h-24.1L267.1,115.5z M294.2,115.5h12.6c11.4,0,18.9-7.9,18.9-18.4s-7.4-18.4-18.9-18.4h-12.5L294.2,115.5z M298.8,111.4
	V82.8h8c9.1,0,14.1,6.4,14.1,14.3s-5.2,14.3-14.1,14.3H298.8z M325.4,110.3c3,3.4,7.7,5.8,14.1,5.8c9.9,0,13.6-5.5,13.6-10.8
	c0-7.7-6.8-9.6-12.9-11.2c-4.7-1.3-8.9-2.4-8.9-6.1c0-3.5,3.1-5.8,7.6-5.8c4-0.1,7.9,1.5,10.6,4.4l2.8-3.4
	c-3.1-3.2-7.4-5.1-13.1-5.1c-7.2,0-12.6,4.1-12.6,10.2c0,7.2,6.5,8.9,12.5,10.4c4.9,1.3,9.3,2.5,9.3,6.9c0,2.8-2.1,6.3-8.7,6.3
	c-4.4,0-8.6-1.9-11.6-5.2L325.4,110.3z"/>
</svg>
