<svg id="Layer_1" data-name="Layer 1" xmlns="http://www.w3.org/2000/svg" viewBox="0 0 500 500"><defs><style>.cls-1{fill:#151828;}</style></defs><title>3d-Main_logo copy</title><path class="cls-1" d="M151.31,256.84H176V261H156v12.15h19.6v4.18H156v17.18h-4.69Z"/><path class="cls-1" d="M197.13,256.22c11.13,0,18.7,8.36,18.7,19.49s-7.57,19.5-18.7,19.5-18.7-8.37-18.7-19.5S186,256.22,197.13,256.22Zm0,4.18c-8.47,0-13.84,6.5-13.84,15.31S188.66,291,197.13,291,211,284.47,211,275.71,205.55,260.4,197.13,260.4Z"/><path class="cls-1" d="M232.94,279.53l-7.52-.14-.28,15-4.69-.09.71-37.68,15.14.28c6.89.13,11.72,4.63,11.59,11.58-.13,6.78-4.83,10.42-10,10.77l9.88,15.56-5.53-.1ZM235.65,261l-9.88-.18-.27,14.4,9.88.19c4.47.08,7.57-2.86,7.65-7.09S240.12,261.13,235.65,261Z"/><path class="cls-1" d="M271.25,264.13v30.4h-4.69V256.84h4.81l21.69,29.78V256.84h4.69v37.69h-4.52Z"/><path class="cls-1" d="M304.48,256.84h24.69V261h-20v12.15h19.6v4.18h-19.6v13h20v4.18H304.48Z"/><path class="cls-1" d="M334.13,256.84h24.69V261h-20v12.15h19.6v4.18h-19.6v13h20v4.18H334.13Z"/><path class="cls-1" d="M363.77,256.84h12.89c11.69,0,19.32,8.2,19.32,18.87s-7.63,18.82-19.32,18.82H363.77Zm12.89,33.51c9.15,0,14.46-6.56,14.46-14.64S386,261,376.66,261h-8.2v29.33Z"/><path class="cls-1" d="M400.41,285.66A15.9,15.9,0,0,0,412.27,291c6.72,0,8.87-3.61,8.87-6.49,0-4.52-4.57-5.77-9.55-7.12-6-1.58-12.77-3.28-12.77-10.68,0-6.21,5.54-10.45,12.94-10.45,5.77,0,10.23,1.92,13.39,5.25L422.33,265a14.42,14.42,0,0,0-10.91-4.52c-4.52,0-7.74,2.43-7.74,6,0,3.78,4.35,4.91,9.16,6.21C419,274.3,426,276.22,426,284.13c0,5.48-3.73,11.08-13.9,11.08-6.55,0-11.35-2.49-14.46-6Z"/><path class="cls-1" d="M125.27,271.53c0-.31-.11-.61-.18-.92,0-.07,0-.15,0-.22a22.18,22.18,0,0,0-1.72-4.9l-10.29-21-8.28-16.88,19.15-9.39a9.1,9.1,0,0,0,4.16-4.18,6.65,6.65,0,0,0,.27-.61,2.33,2.33,0,0,0,.11-.28,7.61,7.61,0,0,0,.31-1c.07-.26.12-.53.17-.8s.06-.46.08-.69a10.11,10.11,0,0,0,0-2,7,7,0,0,0-.13-.78,1.16,1.16,0,0,0,0-.18c-.05-.24-.12-.48-.19-.73s-.12-.37-.19-.56a8,8,0,0,0-.39-.91l-.37-.74h0l-22.07,10.83L91.07,222.7l4.61,9.4,10.54,21.5c-.26,0-.52,0-.79,0h-.23l-.58,0h-1.13l-.44,0h-.18c-.41,0-.82.08-1.23.14l-.18,0-.44.07-.21,0-.41.08-.22.05-.43.1-.18,0c-.41.1-.81.22-1.22.35l-.18.06-.42.14-.22.09a2.5,2.5,0,0,0-.38.15l-.22.08-.41.18-.19.08-.58.27h0A19.69,19.69,0,0,0,90,259.78c-.23.24-.45.49-.67.75s-.42.51-.62.77l-.59.81c-.28.41-.54.83-.79,1.25a20.91,20.91,0,0,0-2.84,10.49,21.53,21.53,0,0,0,2.22,9.6c.1.21.21.42.32.62l.09.16c.09.18.19.36.29.53a.41.41,0,0,1,0,.09l.36.58.09.15.31.47.08.12c.12.18.25.37.39.55a.76.76,0,0,0,.08.11l.34.45a1.47,1.47,0,0,1,.1.13l.42.52.06.06.39.45.11.12c.31.33.62.65.94,1l.12.11.43.41.06,0,.5.43.12.09c.14.12.28.24.43.35l.09.08.53.39.1.08.46.31.12.08.55.36.07,0,.49.3.14.08c.37.21.76.42,1.15.61l.14.07.53.25.06,0,.6.25.14.06.5.2.11,0,.61.21.13,0,.51.16.14,0,.62.17.09,0,.54.13.16,0,.63.12h0l.61.1.17,0,.56.07h.08l.63.06h.16l.53,0h1.81l.23,0,.3,0,.23,0,.31,0,.22,0,.32,0,.2,0,.36-.05.17,0,.52-.1h.08l.45-.1.18,0,.34-.08.21-.06.31-.09.22-.06.3-.09.22-.07.3-.1.22-.08.3-.11.21-.08.32-.13.2-.08.34-.15.16-.07.51-.24c.42-.21.84-.44,1.24-.67A20.55,20.55,0,0,0,125.27,271.53Z"/><path class="cls-1" d="M76.93,229.64a5.23,5.23,0,1,0,7,2.39A5.22,5.22,0,0,0,76.93,229.64Z"/><path class="cls-1" d="M130.27,232.16a5.23,5.23,0,1,0-2.39,7A5.22,5.22,0,0,0,130.27,232.16Z"/><path class="cls-1" d="M156.65,231.3a17.71,17.71,0,0,0,12.52,5.17c3.46,0,5.58-1.46,5.58-3.34,0-2.24-2.53-3.12-6.7-4-6.46-1.29-15.51-2.94-15.51-12.22,0-6.58,5.58-12.27,15.63-12.27a23.93,23.93,0,0,1,15.92,5.46l-5.52,7.22a18.22,18.22,0,0,0-11-4c-3.35,0-4.64,1.35-4.64,3.06,0,2,2.41,2.76,6.76,3.58C176.1,221.26,185,223.14,185,232c0,7.87-5.82,13.1-16.33,13.1-7.93,0-13.46-2.47-17.39-6.23Z"/><path class="cls-1" d="M188.5,205.22h10.1V244.4H188.5Z"/><path class="cls-1" d="M214.33,220.73V244.4h-10.1V205.22h10.4l15.86,22.56V205.22h10.16V244.4H230.9Z"/><path class="cls-1" d="M265.39,204.58c8.58,0,13.86,4.23,16.74,9.1l-8.46,4.47a9.71,9.71,0,0,0-8.28-4.64c-6.4,0-10.93,4.93-10.93,11.33s4.53,11.34,10.93,11.34a12.23,12.23,0,0,0,7.4-2.35v-3.29h-9v-8.4h18.92v15.33a22.65,22.65,0,0,1-17.33,7.64c-11.69,0-21.21-7.81-21.21-20.27S253.7,204.58,265.39,204.58Z"/></svg>