<svg id="Layer_1" data-name="Layer 1" xmlns="http://www.w3.org/2000/svg" viewBox="0 0 500 500"><defs><style>.cls-1{fill:#151828;}</style></defs><title>3d-Main_logo</title><path class="cls-1" d="M127.11,304.77c-.52.3-1.06.59-1.61.86l-.64.31-.21.09-.44.19-.26.11-.4.16-.27.1-.39.15-.28.1-.38.12-.29.1-.38.11-.29.09-.4.11-.27.07-.43.1-.24.06-.57.12-.1,0-.67.12-.22,0-.46.07-.26,0-.42.05-.28,0-.4,0-.28,0-.4,0-.29,0-.39,0h-1.93l-.68,0h-.21l-.81-.07h-.1l-.73-.1-.21,0-.78-.12h0l-.81-.16-.2,0-.7-.16-.12,0-.79-.22-.18,0-.66-.2-.16-.06q-.39-.12-.78-.27l-.14-.05-.65-.25-.18-.07-.77-.33-.07,0-.69-.32-.18-.09c-.5-.25-1-.51-1.48-.79l-.17-.1-.64-.38-.09-.05-.7-.46-.15-.1-.59-.41-.13-.09L98,302.6l-.12-.09-.56-.45-.15-.13-.64-.55-.07-.06-.56-.53-.15-.14q-.61-.6-1.2-1.23l-.14-.16-.51-.57-.07-.09c-.19-.22-.37-.44-.55-.67l-.12-.16-.44-.57-.11-.15c-.17-.23-.34-.47-.5-.71l-.1-.15c-.14-.2-.27-.4-.4-.61a1.74,1.74,0,0,1-.11-.18c-.16-.25-.31-.5-.46-.75l-.06-.11c-.13-.22-.26-.45-.38-.68a2.12,2.12,0,0,1-.11-.21c-.14-.26-.28-.53-.41-.8a27.57,27.57,0,0,1-2.86-12.33,26.89,26.89,0,0,1,3.64-13.46c.33-.55.67-1.09,1-1.62.24-.35.49-.69.75-1s.53-.67.8-1,.56-.65.86-1a25.25,25.25,0,0,1,7.35-5.44h0l.75-.35.24-.11.52-.22.28-.11.5-.2.28-.1.53-.19.24-.08q.78-.26,1.56-.45l.23-.06.56-.13.28-.06.52-.1.28,0,.56-.09.23,0q.8-.1,1.59-.18H111l.56,0h2.5l1,.07L101.56,226.9l-5.92-12.07,18.66-9.16,28.35-13.9h0l.47.95c.19.39.35.77.5,1.17q.13.36.24.72c.1.31.18.63.26.94,0,.08,0,.15,0,.23.07.33.13.67.17,1s.08.85.09,1.28a11.22,11.22,0,0,1,0,1.3c0,.3-.06.59-.11.89a8.78,8.78,0,0,1-.21,1,12,12,0,0,1-.4,1.33c0,.12-.09.24-.14.36s-.22.53-.35.78a11.67,11.67,0,0,1-5.34,5.37l-24.6,12.06,10.64,21.68,13.21,26.94a27.74,27.74,0,0,1,2.21,6.29l.06.28c.08.39.16.79.22,1.18A26.4,26.4,0,0,1,127.11,304.77Zm-49.62-81a6.72,6.72,0,1,0,9,3.07A6.72,6.72,0,0,0,77.49,223.74ZM146,227a6.72,6.72,0,1,0-3.08,9A6.73,6.73,0,0,0,146,227Zm23.67,28.21c3.79,3.62,9.11,6,16.74,6,10.13,0,15.72-5,15.72-12.61,0-8.54-8.59-10.35-14.81-11.65-4.19-.8-6.51-1.47-6.51-3.45,0-1.64,1.25-2.95,4.47-2.95a17.52,17.52,0,0,1,10.63,3.91l5.32-7a23,23,0,0,0-15.33-5.26c-9.67,0-15,5.49-15,11.82,0,8.94,8.71,10.52,14.93,11.77,4,.84,6.45,1.69,6.45,3.84,0,1.81-2,3.22-5.38,3.22a17,17,0,0,1-12-5Zm35,5.32h9.72V222.78h-9.72Zm40,0h9.39V222.78h-9.79v21.71l-15.27-21.71H219V260.5h9.73V237.71Zm12-18.83c0,12,9.16,19.51,20.42,19.51a21.82,21.82,0,0,0,16.68-7.35V239.06H275.61v8.09h8.65v3.17a11.74,11.74,0,0,1-7.12,2.26c-6.17,0-10.52-4.75-10.52-10.91s4.35-10.92,10.52-10.92a9.37,9.37,0,0,1,8,4.47l8.15-4.3c-2.78-4.69-7.87-8.77-16.12-8.77C265.88,222.15,256.72,229.68,256.72,241.67Zm-83.43,65.51h4.58V290.42H197v-4.08H177.87V274.49h19.51v-4.08H173.29Zm24.59-18.36c0,10.86,7.33,19,18.24,19s18.25-8.16,18.25-19-7.39-19-18.25-19S197.88,278,197.88,288.82Zm31.75,0c0,8.55-5.3,14.94-13.51,14.94s-13.5-6.39-13.5-14.94,5.23-14.93,13.5-14.93S229.63,280.23,229.63,288.82Zm29,18.36H264l-9.92-15c5-.44,9.53-4.08,9.53-10.7,0-6.78-4.79-11.08-11.52-11.08H237.34v36.77h4.57V292.57h7.34Zm.27-25.69c0,4.14-3,7.06-7.33,7.06h-9.65V274.49h9.65C255.91,274.49,258.89,277.36,258.89,281.49Zm45.36,25.69h4.41V270.41h-4.58v29l-21.16-29h-4.69v36.77h4.58V277.52Zm9.1,0h24.08V303.1H317.92V290.42h19.13v-4.08H317.92V274.49h19.51v-4.08H313.35Zm27,0h24.08V303.1H345V290.42H364.1v-4.08H345V274.49h19.51v-4.08H340.4Zm27.05,0H380c11.41,0,18.85-7.88,18.85-18.36s-7.44-18.41-18.85-18.41H367.45ZM372,303.1V274.49h8c9.1,0,14.11,6.4,14.11,14.33S388.94,303.1,380,303.1Zm26.59-1.1c3,3.41,7.71,5.84,14.11,5.84,9.92,0,13.56-5.46,13.56-10.8,0-7.72-6.84-9.59-12.85-11.19-4.68-1.27-8.93-2.37-8.93-6.07,0-3.47,3.15-5.84,7.56-5.84a14.05,14.05,0,0,1,10.63,4.41l2.76-3.36c-3.09-3.25-7.44-5.13-13.06-5.13-7.22,0-12.62,4.14-12.62,10.2,0,7.22,6.55,8.87,12.45,10.42,4.85,1.32,9.32,2.53,9.32,6.94,0,2.81-2.1,6.34-8.66,6.34a15.49,15.49,0,0,1-11.57-5.24Z"/></svg>